<?xml version="1.0" standalone="no"?>
<!DOCTYPE svg PUBLIC "-//W3C//DTD SVG 20010904//EN"
 "http://www.w3.org/TR/2001/REC-SVG-20010904/DTD/svg10.dtd">
<svg version="1.0" xmlns="http://www.w3.org/2000/svg"
 width="700.000000pt" height="700.000000pt" viewBox="0 0 700.000000 700.000000"
 preserveAspectRatio="xMidYMid meet">
<metadata>
Created by potrace 1.14, written by Peter Selinger 2001-2017
</metadata>
<g transform="translate(0.000000,700.000000) scale(0.100000,-0.100000)"
fill="#000000" stroke="none">
<path d="M0 3500 l0 -3500 3500 0 3500 0 0 3500 0 3500 -3500 0 -3500 0 0
-3500z m5530 1041 c257 -70 450 -212 450 -332 0 -32 -7 -42 -57 -85 -108 -91
-165 -149 -204 -206 -64 -94 -143 -252 -229 -458 -230 -550 -369 -739 -649
-884 -265 -137 -616 -170 -965 -91 -233 53 -433 157 -593 310 l-46 45 -65 -58
c-196 -175 -355 -269 -537 -319 -93 -25 -114 -27 -310 -27 -200 -1 -215 0
-309 27 -195 54 -289 128 -367 287 -124 252 -157 349 -239 700 -28 118 -68
278 -90 356 -65 228 -90 349 -79 386 21 74 129 151 271 192 258 75 571 48 733
-64 58 -40 72 -64 95 -174 12 -53 50 -196 84 -318 35 -123 74 -267 87 -320
l23 -97 75 63 c42 35 111 86 153 114 l77 52 -49 119 c-27 65 -69 163 -94 216
-25 54 -46 109 -46 122 0 105 185 223 420 267 109 21 310 21 403 0 120 -27
237 -100 237 -148 0 -7 22 -57 48 -112 27 -54 97 -216 156 -359 122 -294 192
-452 235 -526 l29 -52 37 73 c21 41 77 171 125 290 98 240 172 393 253 522 77
122 117 167 242 274 61 52 124 113 141 137 35 47 77 75 143 94 70 20 316 10
411 -16z"/>
</g>
</svg>
