<svg xmlns="http://www.w3.org/2000/svg" width="36.527" height="36.527" viewBox="0 0 36.527 36.527">
  <defs>
    <style>
      .cls-1 {
        fill: #afafaf;
      }
    </style>
  </defs>
  <g id="Group_1138" data-name="Group 1138" transform="translate(3463.338 3202.5)">
    <path id="Path_202" data-name="Path 202" class="cls-1" d="M9.132,0H27.4a9.132,9.132,0,0,1,9.132,9.132V27.4A9.132,9.132,0,0,1,27.4,36.527H9.132A9.132,9.132,0,0,1,0,27.4V9.132A9.132,9.132,0,0,1,9.132,0Z" transform="translate(-3463.338 -3202.5)"/>
    <g id="Group_1137" data-name="Group 1137" transform="translate(-3458.074 -3192.736)">
      <path id="Path_136" data-name="Path 136" d="M-1254.977-5601.653c-.018.871-.01,8.116-.035,11.625.024,1.095-.105,1.213-.105,1.213l-7.116-7.048,7.151-7A3.778,3.778,0,0,1-1254.977-5601.653Z" transform="translate(1280.975 5604.367)"/>
      <path id="Path_137" data-name="Path 137" d="M-1262.232-5601.653c.018.871.01,8.116.035,11.625-.024,1.095.105,1.213.105,1.213l7.116-7.048-7.151-7A3.778,3.778,0,0,0-1262.232-5601.653Z" transform="translate(1262.234 5604.367)"/>
      <path id="Path_138" data-name="Path 138" d="M0,1.994C.034,3.427.019,15.35.063,21.126c-.04,1.8.18,2,.18,2L7.3,16.2a6.331,6.331,0,0,1-2.428-4.6A6.265,6.265,0,0,1,7.3,6.947L.184,0A6.012,6.012,0,0,0,0,1.994Z" transform="translate(1.426 17) rotate(-90)"/>
      <path id="Path_139" data-name="Path 139" d="M0,21.128C.034,19.7.019,7.772.063,2c-.04-1.8.18-2,.18-2S2.673,2.152,5.268,5.022s5.357,4.147,5.357,6.459-2.747,3.765-5.357,6.676A54.225,54.225,0,0,1,.184,23.122,6.014,6.014,0,0,1,0,21.128Z" transform="translate(24.548) rotate(90)"/>
    </g>
  </g>
</svg>
