<svg xmlns="http://www.w3.org/2000/svg" width="831" height="494.803" viewBox="0 0 831 494.803">
  <defs>
    <style>
      .cls-1 {
        fill: #afafaf;
      }
    </style>
  </defs>
  <g id="Group_1011" data-name="Group 1011" transform="translate(-105.654 -1136.822)">
    <g id="Group_962" data-name="Group 962" transform="translate(119.653 1484.609)">
      <g id="Group_954" data-name="Group 954" transform="translate(642.943 33.583)">
        <path id="Path_91" data-name="Path 91" class="cls-1" d="M623.051,1372.913a91.393,91.393,0,0,0-29.348,4.373c-9.554,3.119-18.689,8.236-25.065,16.141-3.122,3.878-4.269,8.038-5.106,12.84a35.37,35.37,0,0,0-.825,8.879c.55,6.5,4.431,12.064,9.7,15.728,7.115,4.951,15.808,6.932,24.188,8.566,1.891.908,3.892,1.6,5.725,2.624.824.462,1.579,1.04,2.372,1.551.018.017.038.033.053.05.175.2.345.429.515.627.153.165.322.33.465.511a13.3,13.3,0,0,1,.825,1.386c-2.7.116-5.39.165-8.1.165-7.148-.033-14.322,0-21.455.511-2.429-6.14-9.783-8.321-23.837-5.944-14.966,2.542-18.364,11.145-17.188,18.093,6.268,7.806,5.456,11.337,15.281,14.043,8.186,2.245,12.245,2.558,20.69,2.014,3.431-.214,6.816-.71,10.211-1.238,1.465-.215,3-.545,4.487-.611,5.717-.247,11.454-.1,17.174-.165,12.069-.132,24.485-.792,36.155-4.076,9.209-2.574,21.681-7.856,23.878-18.451,1.005-4.853-.962-9.325-3.765-13.2-3.887-5.38-9.046-9.044-14.854-12.18-2.225-1.188-4.547-2.278-6.859-3.3-2.243-.991-4.5-1.9-6.808-2.723a92.735,92.735,0,0,0-10.057-3c-.895-.2-1.781-.38-2.682-.561-.129-.479-.363-.925-.464-1.337,0-.1,0-.1,0-.165,0-.115,0-.28,0-.413.007-.248.031-.726.051-.974.083-1.04.119-1.683.258-2.74a47.433,47.433,0,0,1,.876-4.885c.134-.561.39-1.139.516-1.717a18.634,18.634,0,0,1,3.4-3.713,4.713,4.713,0,0,1,.413-.248,6.555,6.555,0,0,1,2.114,1.189,5.081,5.081,0,0,1,1.134,1.535,4.667,4.667,0,0,1,.155.479,18.056,18.056,0,0,0-1.34,3.7c-.436,6.981,11.4,13.4,26.406,14.342s27.517-3.961,27.953-10.926c.616-2.327,1.837-4.34,1.857-6.866.035-4.456-2.755-8.764-5.674-11.916-6.291-6.783-15.407-10.662-24.084-13.352A102.869,102.869,0,0,0,623.051,1372.913Z" transform="translate(-525.168 -1372.906)"/>
      </g>
      <g id="Group_955" data-name="Group 955" transform="translate(485.41 33.798)">
        <path id="Path_92" data-name="Path 92" class="cls-1" d="M504.48,1373.075a227.282,227.282,0,0,0-25.078,1.039c-17,1.518-35.774,4.819-49.576,16.339a34.983,34.983,0,0,0-6.654,7.13c-5.795,8.533-7.34,20.085-6.9,30.368.369,8.582,2.235,17.676,7.09,24.706a33.228,33.228,0,0,0,4.918,5.512c17.1,15.91,40.456,17.313,62.02,17.4,4.573.017,9.114.5,13.7.413a106.817,106.817,0,0,0,12.973-1.188c.046-.033.051-.115.1-.165,10.367-.842,20.689-2.492,30.335-6.7,5.269-2.294,10.593-5.132,14.661-9.49,7.949-8.5,11.989-22.1,12.684-33.883a37.713,37.713,0,0,0-1.4-13.764c-1.941-6.04-5.756-10.992-9.934-15.431a70.7,70.7,0,0,0-5.932-5.727c-8.173-6.865-18.1-10.991-28.164-13.451A116.078,116.078,0,0,0,504.48,1373.075Zm-2.315,26.043a19.376,19.376,0,0,1,5.594.627c3.076.957,5.525,3.169,7.813,5.463a31.453,31.453,0,0,1,6.173,7.938c1.332,2.673,1.531,5.908,1.494,8.879a51.65,51.65,0,0,1-2.12,13.764,40.58,40.58,0,0,1-3.667,8.879,19.125,19.125,0,0,1-1.253,1.9c-.21.281-.406.561-.627.825a.588.588,0,0,1-.1.116,17.057,17.057,0,0,1-3.23,1.65,20.284,20.284,0,0,1-5.258.759c-2.414-1.518-4.662-1.948-6.173-.875-.289.017-.019-.016-.289,0-4.066-.181-8.131-.313-12.2-.3H485.19l-2.315-.049c-3.085-.1-3.622-.017-6.221-2.178a24.221,24.221,0,0,1-1.929-1.8,9.6,9.6,0,0,1-1.64-2.69,30.127,30.127,0,0,1-1.977-5.925,49.547,49.547,0,0,1-1.157-8.565,54.139,54.139,0,0,1,.386-10.051,38.111,38.111,0,0,1,1.448-6.75,13.943,13.943,0,0,1,2.556-5.215,16,16,0,0,1,4.341-3.35,22.338,22.338,0,0,1,6.75-1.766c2.835-.413,5.685-.627,8.537-.875C496.687,1399.317,499.437,1399.118,502.165,1399.118Z" transform="translate(-416.204 -1373.037)"/>
      </g>
      <g id="Group_956" data-name="Group 956" transform="translate(310.818 32.186)">
        <path id="Path_93" data-name="Path 93" class="cls-1" d="M392.18,1372.06a220.665,220.665,0,0,0-25.169,1.551c-17.009,1.915-35.857,6.239-48.017,19.293-6.035,6.469-8.31,15.761-8.973,24.343s.18,17.66,3.454,25.68c2.192,5.364,5.493,8.962,9.439,13.1,4.981,5.215,10.259,9.8,16.968,12.675,9.883,4.258,21.133,5.562,31.821,5.38,9.52-.182,18.361-2.443,27.232-5.116h.053c1.966.478,4-.562,5.983-.974,1.51-.314,3.009-.759,4.487-1.188.18-.049.337-.148.515-.215a23.967,23.967,0,0,0,3.92,8c5.309,6.833,13.731,10.2,22.074,11.553a53.637,53.637,0,0,0,6.291.66,58.093,58.093,0,0,0,7.582-.1,54.372,54.372,0,0,0,7.995-1.188,44.152,44.152,0,0,0,6.912-2.261,24.824,24.824,0,0,0,4.28-2.426,10.613,10.613,0,0,0,4.281-5.677c1.365-4.786-2.979-9.754-5.88-12.989-.685-.776-1.662-1.865-2.372-2.591-.356-.363-.723-.71-1.083-1.073,0-.38-.1-.759-.1-1.139-.1-6.321-.236-12.609-.257-18.93-.02-5.71.041-11.454.206-17.164.117-4.06.71-8.252-.257-12.229-1.438-5.925-5.519-10.678-9.645-14.953A62.4,62.4,0,0,0,442,1383.927a75.546,75.546,0,0,0-24.807-9.44A125.91,125.91,0,0,0,392.18,1372.06Zm1.444,26.258a8.668,8.668,0,0,1,4.745,1.9,23.248,23.248,0,0,1,1.959,1.651c.924.908,1.832,1.832,2.733,2.74,1.941,1.964,4.151,4.06,5.055,6.767a13.278,13.278,0,0,1,.257,4.637c-.038,1.651-.079,3.136-.1,4.786-.066,4.786.1,9.556.154,14.342-1,.082-2-.016-2.991.1a60.962,60.962,0,0,0-14.184,3.515c-.69.215-1.386.347-2.063.561-2.91.941-5.818,1.964-8.716,2.938-1.972.677-3.954,1.32-5.931,1.964-2.259-2.344-3.933-4.093-5.1-7.575a39.814,39.814,0,0,1-1.65-7.542,53.731,53.731,0,0,1-.465-6.387c-.078-5.809.48-12.229,3.2-17.478a10.905,10.905,0,0,1,3.456-3.878,10.258,10.258,0,0,1,1.65-.924c.17-.082.388-.2.566-.264-.087.033.178-.082.259-.049a65.45,65.45,0,0,1,11.757-1.551A38.143,38.143,0,0,1,393.624,1398.318Z" transform="translate(-309.81 -1372.06)"/>
      </g>
      <g id="Group_961" data-name="Group 961">
        <g id="Group_959" data-name="Group 959" transform="translate(144.812)">
          <g id="Group_957" data-name="Group 957" transform="translate(0 -9.783)">
            <path id="Path_94" data-name="Path 94" class="cls-1" d="M237.7,1352.562c-15.119-.177-27.463,5.757-27.542,13.287-.632,18.974-.187,37.948-.051,56.921.076,10.577-.625,21.206.051,31.765a66.109,66.109,0,0,0,1.393,11.3c.574,2.356,1.933,4.27,2.631,6.537a38.61,38.61,0,0,1,1.444,9.124c.086,7.972,13.126,14.261,29.088,14.066s28.813-6.821,28.727-14.775a52.108,52.108,0,0,0-2.32-12.791,34.11,34.11,0,0,0-1.857-4.322,5.429,5.429,0,0,1-.517-1.17c-.317-1.913-.616-3.809-.825-5.74-1.131-10.506-.881-21.135-1.391-31.676-.4-8.2-.99-16.387-1.342-24.59q-.728-16.98-.257-33.979C265.014,1358.975,252.822,1352.757,237.7,1352.562Z" transform="translate(-209.831 -1352.558)"/>
          </g>
          <g id="Group_958" data-name="Group 958" transform="translate(16.985 44.7)">
            <path id="Path_95" data-name="Path 95" class="cls-1" d="M271.6,1384.7a135.939,135.939,0,0,0-19.856,2.5c-3.6.725-7.1,1.74-10.676,2.61-7.024,1.7-13.877,3.372-20.475,6.617-2.347,5.42,4.359,14.339,14.958,19.886,10.6,5.565,21.067,5.638,23.414.235a1.574,1.574,0,0,0,.257-.127c-.124.073.276-.073.413-.108.728-.163,1.439-.345,2.167-.508,2.086-.472,4.164-1,6.24-1.523a41.092,41.092,0,0,1,10.47-1.541,84.867,84.867,0,0,1,10.47,1.2c.68.091,1.365.218,2.063.29.059.127.107.272.155.381.446,1.142.873,2.266,1.289,3.408a57.3,57.3,0,0,1,2.991,10.714c1.056,6.58.833,13.269.929,19.941.055,3.825.259,7.632.568,11.438.119,8.139,13.132,14.5,29.087,14.212,15.956-.272,28.8-7.088,28.677-15.227-.916-10.188-.172-20.521-1.6-30.654a68.136,68.136,0,0,0-4.487-15.753,45.7,45.7,0,0,0-4.281-8.955c-3.585-5.275-9.051-8.919-14.543-11.312-7.854-3.444-16.123-5-24.5-5.91-4.544-.471-9.117-1.088-13.667-1.468A151.238,151.238,0,0,0,271.6,1384.7Z" transform="translate(-220.122 -1384.517)"/>
          </g>
        </g>
        <g id="Group_960" data-name="Group 960" transform="translate(3 32.213)">
          <path id="Path_96" data-name="Path 96" class="cls-1" d="M196.659,1375.14a97.3,97.3,0,0,0-34.193,9.153c-12.274,5.686-23.6,13.643-32.493,24.27-5.851,7-11.246,15.342-13.873,24.339-1.253,4.282-1.928,9.1-.413,13.417,1.8,5.131,6.189,9.014,10.315,12.083a59.732,59.732,0,0,0,11.6,6.882c6.442,2.808,13.261,4.247,20.113,5.426,5.46.936,10.83,2.063,16.351,2.6a178.743,178.743,0,0,0,19.754.538c5.326-.087,10.624-.052,15.936-.538,5.427-.5,10.792-1.525,16.194-2.219,4.164-.538,8.331-.832,12.482-1.525,3.306-.538,6.6-1.283,9.851-2.115,3.045-3.71-.652-12.291-8.252-19.173s-16.243-9.448-19.29-5.738c-2.679.78-6.989.9-10.315,1.352-2.57.347-5.124.728-7.684,1.144l-2.786.416c-.333.069-.84.121-1.185.173-.1.017-.251.035-.31.052h-2.218l-2.578.052c-1.4.017-2.883.087-4.281.1a31.26,31.26,0,0,1-5.415-.052c-1.619-.3-3.226-.642-4.849-.919-1.523-.26-3.012-.52-4.539-.763-.256-.156-.545-.277-.774-.433a17.111,17.111,0,0,1-1.7-1.231,6.6,6.6,0,0,1-.67-.607c-.016-.017-.035-.017-.051-.052a8.771,8.771,0,0,1,.155-3.519,33.092,33.092,0,0,1,2.527-7.368,56.525,56.525,0,0,1,17.432-21.669c1.122-.832,2.429-1.335,3.611-2.063,4.364,4.507,14.235,7.16,25.53,6.345,14.933-1.092,26.684-7.887,26.2-15.169-5.375-16.486-23.287-21.911-38.319-23.143A82.175,82.175,0,0,0,196.659,1375.14Z" transform="translate(-114.817 -1374.951)"/>
        </g>
      </g>
    </g>
    <g id="Group_967" data-name="Group 967" transform="translate(368.7 1346.128)">
      <g id="Group_965" data-name="Group 965" transform="translate(176.934)">
        <g id="Group_963" data-name="Group 963">
          <path id="Path_97" data-name="Path 97" class="cls-1" d="M479.918,1269.88a185.159,185.159,0,0,0-21.3,2.789c-16.593,2.888-33.191,7.625-46.675,18.154-9.444,7.377-16.052,17.048-21.765,27.43a86.483,86.483,0,0,0-4.641,9.292c-4.207,10.48-4.641,22.083-5.053,33.223-.467,12.576.393,25.136,5.724,36.7.7,7.262,13.893,11.933,29.5,10.431,15.609-1.518,27.725-8.582,27.025-15.844-4.512-9.572-5-20.251-4.694-30.681.249-8.367.3-16.9,2.373-25.069a55.17,55.17,0,0,1,4.745-11.553,93.864,93.864,0,0,1,7.323-12.477c5.7-7.872,12.574-13.038,22.127-15,3.286-.677,6.585-1.254,9.9-1.766.574-.083,1-.149,1.444-.2,3.369,1.716,9.876-.957,15.473-6.816,6.121-6.387,8.645-13.864,5.673-16.7A105.006,105.006,0,0,0,479.918,1269.88Z" transform="translate(-380.371 -1269.702)"/>
        </g>
        <g id="Group_964" data-name="Group 964" transform="translate(50.507 51.286)">
          <path id="Path_98" data-name="Path 98" class="cls-1" d="M436.959,1300.831a156.222,156.222,0,0,0-23.88,1.5c-3.169,1.733-2.708,8.7,1.032,15.514,3.74,6.833,9.312,10.925,12.482,9.193,1.327-.149,2.872-.33,4.228-.412a7.207,7.207,0,0,1,1.031-.05c.045,0,.147.083.1.1-.356.066-.724.066-1.084.1-.218.016-.7-.165-.67.049.028.247.487.165.721.214.787.149,1.581.281,2.373.413,1.064.165,2.129.38,3.2.512a131.833,131.833,0,0,0,13.254.875c3.444.149,6.486-5.727,6.808-13.154.32-7.411-2.228-13.517-5.674-13.665-.216.016-.536-.2-.619,0s.416.033.619.049c.129.016-.282.016-.413,0-.427-.033-.862-.049-1.289-.1-.715-.066-1.4-.182-2.114-.264C443.706,1301.343,440.339,1300.947,436.959,1300.831Z" transform="translate(-410.974 -1300.777)"/>
        </g>
      </g>
      <g id="Group_966" data-name="Group 966" transform="translate(0 16.552)">
        <path id="Path_99" data-name="Path 99" class="cls-1" d="M375.118,1279.763c-15.063-.33-30.1,1.98-44.869,5.05-16.657,3.466-34.757,8.764-46.573,21.769-6.923,7.625-8.97,17.857-8.665,27.908.332,10.926,3.294,22.825,10.521,31.358a36.515,36.515,0,0,0,7.376,6.486c15.456,10.579,34.921,13.4,53.277,12.741,6.468-.231,12.914-.974,19.341-1.7,4.824-.545,9.671-.594,14.492-1.238a108.972,108.972,0,0,0,12.584-2.575c.01-.017-.01-.033,0-.05a106.821,106.821,0,0,0,22.9-6.552c6.379-2.773,13.3-6.569,18.05-11.768,8.057-8.8,10.931-23.105,10.625-34.658a37.069,37.069,0,0,0-3.2-15.052c-3.811-7.955-11.465-14.21-18.721-18.98-9.591-6.3-20.807-9.737-32.08-11.453A118.665,118.665,0,0,0,375.118,1279.763Zm-4.847,26.142a10.439,10.439,0,0,1,3.92,0,22.613,22.613,0,0,1,6.344,3.928,23.044,23.044,0,0,1,6.034,6.09,20.224,20.224,0,0,1,2.372,8.863,49.768,49.768,0,0,1-.619,11.965c-.843,5.149-2.288,10.463-5.57,14.589a11.392,11.392,0,0,1-2.063,1.452,22.264,22.264,0,0,1-3.713,1.848,26.333,26.333,0,0,1-3.4.825c-4.233-1.419-7.886-1.452-9.594.627-1.647.3-.52.115-1.65.314l-1.5.1-1.753.1c-.721.049-1.447.1-2.167.165-4.017.314-8.009.875-12.017,1.287-.959.1-1.924.132-2.888.2a21.379,21.379,0,0,1-2.424-1.436c-.053-.033-.153-.148-.1-.1-.068-.066-.1-.149-.154-.215-.094-.1-.168-.2-.259-.313a13.359,13.359,0,0,1-1.083-1.386,22.537,22.537,0,0,1-1.908-3.565,48.749,48.749,0,0,1-3.558-14.689,46.3,46.3,0,0,1,.051-8.714c.322-3.169.914-6.536,2.58-9.292a15.4,15.4,0,0,1,3.558-3.763c5.861-4.8,14.172-5.925,21.351-7.328A101.666,101.666,0,0,1,370.271,1305.9Z" transform="translate(-274.982 -1279.731)"/>
      </g>
    </g>
    <g id="Group_976" data-name="Group 976" transform="translate(105.654 1136.822)">
      <g id="Group_968" data-name="Group 968" transform="translate(660.415 12.305)">
        <path id="Path_100" data-name="Path 100" class="cls-1" d="M650.759,1144.381a41.572,41.572,0,0,0-5.157.825,69.168,69.168,0,0,0-12.74,4.126,16.128,16.128,0,0,0-4.075,3.053,10.473,10.473,0,0,0-1.5,1.848,13.984,13.984,0,0,0-1.805,4.44c-.741,2.707-1.228,5.347-1.753,8.1-1.152,6.041-2.543,12.015-3.507,18.105-1.493,9.407-2.5,18.913-3.3,28.4-2.55-.132-5.088-.429-7.633-.561-21.736-1.073-45.586-.313-65.14,10.315-7.7,4.176-14.482,9.919-17.691,18.253a99.26,99.26,0,0,0-3.2,11.866,42.2,42.2,0,0,0-1.7,10.414,32.549,32.549,0,0,0,3.714,14.078c10.785,21.538,36.419,27.545,58.538,28.271,3.751.116,7.493.083,11.244,0,4.162-.1,8.32-.181,12.48-.363,5.473-.248,10.924-.809,16.349-1.551.2.528.3,1.089.517,1.6a25.824,25.824,0,0,0,5.519,8.763,18.719,18.719,0,0,0,2.012,1.815,25.505,25.505,0,0,0,3.867,2.376,53.971,53.971,0,0,0,7.065,2.723,55.977,55.977,0,0,0,6.4,1.4c1.845.313,3.7.446,5.568.611a77.286,77.286,0,0,0,10.883.1c.37-.017.715-.066,1.083-.1.873.083,1.759.182,2.631.264,1.236.1,2.476.214,3.713.3,4.07.281,8.146.413,12.223.479,3.446.132,6.453-5.743,6.757-13.154.305-7.427-2.228-13.583-5.672-13.731-2.253-.017-4.473-.281-6.706-.462-.1-.314-.21-.66-.309-.974a122.219,122.219,0,0,1-3.765-16.19c-.522-3.07-.878-6.156-1.238-9.242a106.7,106.7,0,0,0,8.148-19.079c4.316-14.243,5.245-29,5.519-43.785a270.906,270.906,0,0,0-1.187-31.869c-.342-3.433-.721-6.866-1.289-10.266-.261-1.568-.563-3.152-.876-4.7,0-.1-.007-.132,0-.2.013-.148.04-.313.051-.462.02-.28.045-.561.051-.825a8.226,8.226,0,0,0-.413-3c-1.061-2.971-3.469-4.968-6.087-6.6a4.441,4.441,0,0,0-1.185-.71c-7.05-1.552-13.982-3.763-21.147-4.637A25.442,25.442,0,0,0,650.759,1144.381Zm-50.235,93.512c.9.016,2.657.115,3.507.148,2.119.115,4.225.248,6.344.363,1.769.1,3.543.247,5.313.363a245.209,245.209,0,0,0,.98,31.209c-.827,1.452-1.536,2.988-2.476,4.374-1,1.485-2.344,3.367-3.973,4.241a4.43,4.43,0,0,1-.619.3c-.015.017-.03,0-.051,0a39.1,39.1,0,0,1-7.84.941c-5.194.231-10.473.578-15.679.3a9.753,9.753,0,0,1-1.65-1.122,21.94,21.94,0,0,1-4.539-5.364,20.821,20.821,0,0,1-3.2-9.969c-.066-3.878,1.393-7.856,2.268-11.6.713-3.037,1.373-6.337,3.147-8.961C586.043,1237.183,594.351,1237.728,600.524,1237.893Zm58.693,58.787c.584,0,1.168-.016,1.753,0-.876.05-1.748,0-2.629.066C658.633,1296.73,658.923,1296.7,659.217,1296.68Z" transform="translate(-521.562 -1144.277)"/>
      </g>
      <g id="Group_969" data-name="Group 969" transform="translate(580.067)">
        <path id="Path_101" data-name="Path 101" class="cls-1" d="M509.277,1136.968c-14.969-1.056-27.464,3.713-27.954,10.678-3.144,10.15-6.362,20.333-8.148,30.83-3.8,22.363-3.184,45.237-3.3,67.831-.068,13.005-.729,26.027-.619,39.032.048,5.628.365,11.206.723,16.818.078,7.41,13.073,13.318,29.036,13.154s28.806-6.354,28.729-13.781c-.389-5.38-.734-10.744-.825-16.141-.219-12.989.327-25.944.051-38.933-.447-20.976-2.043-42.085.67-62.979,1.424-10.958,4.672-21.488,7.891-32.018C536.019,1144.494,524.246,1138.008,509.277,1136.968Z" transform="translate(-469.242 -1136.821)"/>
      </g>
      <g id="Group_970" data-name="Group 970" transform="translate(439.306 56.378)">
        <path id="Path_102" data-name="Path 102" class="cls-1" d="M404.832,1171.011c-15.095-.465-27.524,4.663-27.747,11.474a99.683,99.683,0,0,0-.31,25.833c1.066,8.4,3.444,16.506,5.313,24.743,1.1,4.84,1.7,9.76,2.629,14.615.6,3.125,1.357,6.218,2.063,9.327,1.292,5.657,1.782,11.41,2.735,17.115-.013.112-.041.256-.051.352a11.013,11.013,0,0,0-.053,1.154,7.7,7.7,0,0,0,.67,3.109c1.365,2.756,4.21,4.712,6.963,6.01a33.4,33.4,0,0,0,3.25,1.3,55.593,55.593,0,0,0,20.579,2.708c1.563-.064,3.137-.289,4.692-.449.637-.08,1.225-.208,1.858-.3.008.016-.01.048,0,.048.021.032.183-.048.257-.048.249-.016.6-.1.876-.144.843-.16,1.7-.353,2.527-.561a29.083,29.083,0,0,0,10.419-4.407,12.715,12.715,0,0,0,2.578-2.452c1.776-2.276,1.7-4.663,1.754-7.468.048-2.356,0-4.744.1-7.1.172-3.766,1.178-7.452,1.65-11.169.493-3.894.484-7.837,1.342-11.667,1.636-7.324,7.211-12.916,12.223-18.285a88.764,88.764,0,0,1,15.162-13.574,26.609,26.609,0,0,1,7.222-3.75,32.111,32.111,0,0,1,6.549-.85c2.591-.192,5.2-.352,7.788-.5,3.42-.978,4.415-7.532,2.269-14.679s-6.638-12.131-10.058-11.17c-13.956.817-27.935,1.875-41.26,6.314a81.561,81.561,0,0,0-17.844,8.7,98.9,98.9,0,0,1,.772-11.058C431.978,1177.373,419.927,1171.476,404.832,1171.011Z" transform="translate(-376.077 -1167.463)"/>
      </g>
      <g id="Group_975" data-name="Group 975" transform="translate(0 68.548)">
        <g id="Group_971" data-name="Group 971" transform="translate(249.137 1.434)">
          <path id="Path_103" data-name="Path 103" class="cls-1" d="M353.235,1179.267a257.162,257.162,0,0,0-27.387,1.089c-18.6,1.551-39.156,4.869-54.255,16.653a36.95,36.95,0,0,0-7.273,7.327c-6.382,8.8-8.122,20.663-7.633,31.259.408,8.813,2.494,18.187,7.839,25.416a35.688,35.688,0,0,0,5.417,5.677c13.155,11.437,30.693,15.877,47.706,17.23,6.664.528,13.382.495,20.062.511,5.049.017,10.054.545,15.111.462,2.791-.049,5.544-.446,8.3-.726,14.557-.611,29.308-2.773,42.6-8.962a47.352,47.352,0,0,0,11.038-6.816c8.473-7.344,12.855-19.029,14.7-29.807,1.157-6.766,1.546-14.11-.723-20.679-2.347-6.816-7.225-12.213-12.325-17.131a65.9,65.9,0,0,0-6.6-5.727c-8.66-6.387-18.92-10.3-29.347-12.692A135.275,135.275,0,0,0,353.235,1179.267Zm-2.423,25.994a23.881,23.881,0,0,1,6.755.776c3.537,1.04,6.39,3.4,9.026,5.875,2.868,2.707,5.867,5.562,7.376,9.292,1.4,3.466,1.383,7.41,1.083,11.091-.581,7.08-2.5,14.507-6.24,20.63a21.4,21.4,0,0,1-1.806,2.574c-.152.182-.353.347-.515.512a3.162,3.162,0,0,0-.259.264,21.359,21.359,0,0,1-3.713,1.7,26.88,26.88,0,0,1-6.291.875c-2.581-1.518-4.986-1.964-6.6-.875-.413.017-.033-.033-.413,0-4.563-.181-9.152-.363-13.72-.363-1.6,0-3.2.017-4.8,0-4.242-.066-5.618.116-9.026-2.525a27.067,27.067,0,0,1-2.165-1.914,8.728,8.728,0,0,1-1.548-2.212,28.782,28.782,0,0,1-2.527-6.866,47.666,47.666,0,0,1-1.289-8.863,52.844,52.844,0,0,1,.413-10.48,37.847,37.847,0,0,1,1.65-7.064c.639-1.832,1.456-4.11,2.888-5.512a18.389,18.389,0,0,1,5.054-3.614,27.284,27.284,0,0,1,7.839-1.964c3.179-.429,6.4-.627,9.594-.875C344.653,1205.492,347.728,1205.261,350.812,1205.261Z" transform="translate(-256.609 -1179.224)"/>
        </g>
        <g id="Group_974" data-name="Group 974">
          <g id="Group_972" data-name="Group 972" transform="translate(0 7.481)">
            <path id="Path_104" data-name="Path 104" class="cls-1" d="M132.476,1182.925c-15.068.511-27.062,6.618-26.819,13.616,1.629,9.126,4.7,17.874,6.912,26.868,2.837,11.487,4.666,23.271,9.437,34.2.949,2.162,1.956,4.291,2.941,6.437,2.225,4.869,4.542,9.935,9.077,13.1a21.4,21.4,0,0,0,2.476,1.6,29.417,29.417,0,0,0,4.847,2.162,80.8,80.8,0,0,0,10.264,2.327,49.969,49.969,0,0,0,7.529.562,82.156,82.156,0,0,0,8.3-.413,56.153,56.153,0,0,0,14.492-3.449c9.633-3.664,17.41-10.628,24.652-17.742,9.378-9.226,18.3-19.161,30.173-25.218,2.319-5.545-5.473-14.095-17.382-19.1-11.908-4.984-23.416-4.539-25.735.99a106.521,106.521,0,0,0-15.783,9.952c-2.472,1.9-4.755,3.994-7.065,6.09-1.464-5.711-2.847-11.454-4.435-17.131-2.155-7.691-4.7-15.233-6.138-23.106C159.98,1187.677,147.545,1182.4,132.476,1182.925Z" transform="translate(-105.654 -1182.888)"/>
          </g>
          <g id="Group_973" data-name="Group 973" transform="translate(71.506)">
            <path id="Path_105" data-name="Path 105" class="cls-1" d="M284.6,1178.446c-9.528-.611-17.027,1.9-18.31,6.75-5.113,4.241-10.634,8.367-14.8,13.616a68.525,68.525,0,0,0-4.9,7.328,116.224,116.224,0,0,0-5.828,10.612c-3.111,6.635-5.659,13.566-8.458,20.333a127.173,127.173,0,0,1-6.24,13.038c-1.051-1.782-2.253-3.631-3.1-5.2-3.608-6.75-6.379-14.012-9.231-21.092-3.543-8.813-7.13-17.544-11.45-25.994-.723-6.849-13.24-11.107-27.953-9.539-14.713,1.551-26.048,8.367-25.324,15.2,6.521,12.857,11.175,26.473,16.917,39.659a124.677,124.677,0,0,0,7.633,14.969,53.668,53.668,0,0,0,6.344,8.764,57.138,57.138,0,0,0,21.868,14.128,75.679,75.679,0,0,0,20.011,4.489,81.425,81.425,0,0,0,21.662-.925,52.857,52.857,0,0,0,25.684-11.916A61.293,61.293,0,0,0,281.3,1257.3c8.453-14.59,12.617-31.292,21.868-45.435.764-1.172,1.57-2.327,2.373-3.466a26.917,26.917,0,0,1,4.539-4.324c2.2-1.9,4.461-3.73,6.7-5.578,1.71-6.469-8.186-14.672-22.125-18.352A52.227,52.227,0,0,0,284.6,1178.446Z" transform="translate(-148.98 -1178.355)"/>
          </g>
        </g>
      </g>
    </g>
  </g>
</svg>
