<svg id="earth_woch" xmlns="http://www.w3.org/2000/svg" width="604.908" height="549.979" viewBox="0 0 604.908 549.979">
  <defs>
    <style>
      .cls-1 {
        fill: #8e9f94;
      }

      .cls-2, .cls-7 {
        fill: #2e2e2e;
        stroke: #2e2e2e;
      }

      .cls-2, .cls-4, .cls-7, .cls-8 {
        stroke-linejoin: round;
        stroke-miterlimit: 10;
      }

      .cls-2, .cls-4 {
        stroke-width: 5px;
      }

      .cls-3, .cls-4, .cls-8 {
        fill: #7eb58b;
      }

      .cls-4, .cls-8 {
        stroke: #132c1c;
      }

      .cls-5 {
        fill: #4d4d4d;
      }

      .cls-6 {
        fill: #414141;
      }

      .cls-7, .cls-8 {
        stroke-width: 4px;
      }

      .cls-9 {
        fill: #8ffab5;
      }
    </style>
  </defs>
  <g id="earth">
    <g id="Group_1093" data-name="Group 1093" transform="translate(0)">
      <g id="Group_1091" data-name="Group 1091" transform="translate(0)">
        <path id="Path_175" data-name="Path 175" class="cls-1" d="M883.762,727.222c0-151.872,135.191-274.989,301.959-274.989s301.956,123.117,301.956,274.989-135.192,274.99-301.956,274.99S883.762,879.1,883.762,727.222Z" transform="translate(-883.762 -452.233)"/>
        <path id="Path_176" data-name="Path 176" class="cls-2" d="M1123.988,521.9l57.885,20.592s22.686,21.4.469,28.585c-2.53.82-1.475,10.223-8.594,14.776s-3.081-2.913-10.328-4.138c-7.725-1.305-36.778-2.318-27.292,7.619,3.182,3.332,11.314,14.8,7,18.069-8.544,6.486-36.041,4.44-38.392,8.675-7.2,12.983-11.306,28.753-3.93,40.622s-2.433,65.106-33.266,54.355c-8.229-2.871-4.7-24.2-11.927-25.71-19.857-4.146-23.578,12.319-29.58,14.6-8.187,3.116-19.671,22.593-10.635,45.981,1.331,3.445,14.9-13.533,20.692-13.494s2.153,10.9,2.479,13.665c.749,6.379-14.751,17.615-18.7,22.306-4.125,4.9-4.431,15.784-5.68,17.956-3.48,6.049-7.741,22.511,80.361,26.38s96.04,33.9,88.327,53.528,1.889,19.9,15.76,24.479,8.221,16.839,19.656,35.567-5.064,28.029-13.456,36.491,8.629,36.316,8.629,39.432-16.168,7.923-56.682-3.077-41.756-18.562-67.713-23.726-54.1-11.756-67.158-31.23-6.662-26.283-32.782-40.813-34.679-13.444-33.907-25.611-.12-22.387-2.281-29.445,10.111-32.487,29.631-44.526,23.854-68.411-25.064-66.7-55.661-20.052-55.661-20.052,1.411-15.768,11.3-41.932c7.7-20.371,20.744-45.993,37.922-67.726,38.691-48.947,78.681-73.445,106.206-85.5C1105.968,500.563,1123.988,521.9,1123.988,521.9Z" transform="translate(-894.833 -488.72)"/>
        <path id="Path_177" data-name="Path 177" class="cls-2" d="M1712.744,489.449s-.663-21.108-29.875-1.542-19.8,24.089-16.424,30.354,2.417,31.439,2.417,31.439-3.379,19.851,10.519,19.421,8.33-14.553,17.813-32.434c3.713-7,13.475-19.719,15.559-24.644C1714.734,507.35,1712.744,489.449,1712.744,489.449Z" transform="translate(-1360.226 -468.978)"/>
        <path id="Path_178" data-name="Path 178" class="cls-3" d="M1756.77,752.671" transform="translate(-1418.049 -636.103)"/>
        <path id="Path_179" data-name="Path 179" class="cls-2" d="M2111.183,929.66s-.308-13.036.744-16.847c1.258-4.559,14.239-19.784,15.61-26.178,1.686-7.872,1.737-25,2.991-34.555.611-4.664,3.661-9.242,4.378-14.767,1.55-11.958.451-26.135-1.558-39.591-7.412-49.613,7.692-44.708-13.562-46.451s-44.112,29.7-42.94,5.032c1.086-22.767-9.472-61.4,12.9-81.5.943-.846-.9-9.375.148-10.233.444-.364,3.248-.323,6.2,1.473,3.875,2.356,6.243-2.429,6.968-2.583,27.7-5.909,19.248,2.366,42.621,6.855s9.971-10.884-2.418-14.072-30.018-5.456-22.251-7.084-20.436-5.27-23.769-2.252c-1.6,1.446,6,6.426,2.333,8.261-11.12,5.566-17.309,8.95-21.114,4.109-4.331-5.507-5.947-2.975-8.658-15.048s1.986-14.017-2.563-21.233c-3.424-5.432-14.247-7.1-15.369-9.328-1.4-2.795,5.418-4.223,6.364-6.2.7-1.467,3.9-4.715,5.227-7.974,4.541-11.154,34.745,12.539,33.328.482-.534-4.552-5.235-13.466-13.371-17.106-6.356-2.844-17.515,7.1-20.95,2.414-1.881-2.562,4.14-7.833,2.637-15.273a18.619,18.619,0,0,0-5.4-9.606s65.478,34.6,103.389,98.87,36.617,108.357,37.357,120.074c.479,7.543,1.843,12.578-2.063,45.977-2.629,22.43-11.066,49.88-14.626,55.363-5.029,7.737-14.975,18.372-20.381,22.294-14.493,10.526-15.47,13.995-21.048,15.621C2137.909,919.9,2111.183,929.66,2111.183,929.66Z" transform="translate(-1598.539 -516.596)"/>
        <path id="Path_180" data-name="Path 180" class="cls-4" d="M2358.69,1466.72" transform="translate(-1786.428 -1073.106)"/>
        <g id="Group_1131" data-name="Group 1131" transform="translate(2 1)">
          <path id="Path_197" data-name="Path 197" class="cls-5" d="M1690.063,487.038c1.452-3.381,13.994-13.27-7.2.868-29.212,19.565-19.8,24.089-16.424,30.354s2.416-15.033,6.682-18S1688.611,490.419,1690.063,487.038Z" transform="translate(-1360.226 -468.977)"/>
          <path id="Path_198" data-name="Path 198" class="cls-6" d="M1692.069,479.4c1.452-3.381-1.583,2.206-7.34,6.549s-4.808,4.852-9.784,8.522-9.165,4.891-10.118,6.161c-4.5,5.983-3.379,11.909-1.027,16.278,3.375,6.264.953-10.453,9.569-16.935S1690.616,482.778,1692.069,479.4Z" transform="translate(-1357.226 -466.977)"/>
        </g>
      </g>
      <g id="Group_1092" data-name="Group 1092" transform="translate(9.052 29.543)">
        <path id="Path_181" data-name="Path 181" class="cls-7" d="M1291.47,1062.3s6.134-7.438,17.46-3.884,46.272,6.817,39.23,8.579c-22.957,5.739-34.593,8.815-44.615,5.874Z" transform="translate(-1142.334 -852.173)"/>
        <path id="Path_182" data-name="Path 182" class="cls-7" d="M1438.786,1089.652s5.618-.609,9.475-4.031c4.047-3.589,6.429-9.909,10.3-6.134,7.566,7.38,6.328,6.15,2.053,9.106-8.73,6.041-2.825,5.416-8.323,5.634s-12.955,2.227-19.225.427S1438.751,1087.995,1438.786,1089.652Z" transform="translate(-1227.877 -864.948)"/>
        <path id="Path_183" data-name="Path 183" class="cls-8" d="M1464.59,1186.8" transform="translate(-1248.284 -931.336)"/>
        <path id="Path_184" data-name="Path 184" class="cls-7" d="M1799.371,619.027s-5.04-16.039,9.723-9.827,9.238-1.2,12.54,5.9-8.609,6.1-12.912,5.093A55.458,55.458,0,0,0,1799.371,619.027Z" transform="translate(-1452.665 -576.965)"/>
        <path id="Path_185" data-name="Path 185" class="cls-7" d="M2001.91,617.108c-6.565.248,2.406-3.924,3.4-11.224.663-4.894-7.892-14.457-5.052-15.925.555-.286,1.521-5.783,4.846-3.723,1.482.918,4.066,7.626,4.815,8.561a34.96,34.96,0,0,1,4.986,9.7c.889,2.387,2.77,1.82,2.77,1.82l3.1,11.594s-4.407-.6-7.321.563S2008.475,616.861,2001.91,617.108Z" transform="translate(-1575.669 -563.504)"/>
        <path id="Path_186" data-name="Path 186" class="cls-7" d="M1960.2,615.637l2.615-9s4.423-4.829,7.729,2.273c1.428,3.075.648,4.074-1.017,5.336a49.863,49.863,0,0,0-4.031,3.438Z" transform="translate(-1551.601 -575.29)"/>
        <path id="Path_187" data-name="Path 187" class="cls-6" d="M967.975,744.5s-51.742-14.8-30.437-44.366,20.889-13.008,29.906-46.192,6.918-40.435,37.011-66.177,36.793-18.814,51.712-34.943,14.8-24.443,14.8-24.443-55.3,18.274-99.346,67.609c-48.974,54.864-65.082,130.937-64.516,131.833C921.5,750.62,967.975,744.5,967.975,744.5Z" transform="translate(-907.091 -528.375)"/>
        <path id="Path_188" data-name="Path 188" class="cls-8" d="M1064.37,1083.14" transform="translate(-1003.347 -867.895)"/>
        <path id="Path_189" data-name="Path 189" class="cls-5" d="M967.16,774.385S907.822,775.918,916.8,740.6c6.816-26.811,9.351-36.031,21.6-52.694,13.955-18.992,10.692-31.321,25.443-39.793,3.806-2.186,8.753-10.944,13.269-17.282A78.423,78.423,0,0,1,990.983,615.8c13.964-11.916,28.51-27.438,28.51-27.438l12.947-11.579s-43.9,23.4-76.539,68.248S907.313,756.091,907.852,757C921.4,779.941,967.16,774.385,967.16,774.385Z" transform="translate(-907.549 -558.003)"/>
      </g>
      <g id="Group_1132" data-name="Group 1132" transform="matrix(0.999, -0.035, 0.035, 0.999, -8.135, 3.909)">
        <path id="Path_195" data-name="Path 195" class="cls-5" d="M973.852,629.125a10.981,10.981,0,0,0,4.056,8.805s-.645-13.459.585-16.748c.2-.527.946.444,3.109-8.044,1.86-7.3,2.3-16.865,3.985-24.032.021-.044,5.613-5.034,8.323-11.475,2.572-6.113,9.337-15.069,12.85-16.459-.121-1.37,4.783-7.655,4.783-7.655l1.634-9.843a39.153,39.153,0,0,1-7.1,9.652c-4.878,4.936-10.478,6.621-15.761,13.2A115.467,115.467,0,0,0,977,585.057c-4.527,7.554-4,7.679-3.873,13.179.07,3.037,2.181,12.351,1.79,16.413C973.919,625.038,973.759,623.021,973.852,629.125Z" transform="translate(-917.04 -241.367)"/>
        <path id="Path_196" data-name="Path 196" class="cls-6" d="M972.277,626.428c-.329,6.059,2.678,8.793,2.678,8.793a70.269,70.269,0,0,1,3.465-14.269c1.6-4.543,1.574-7.821,3.27-16.864s.266-12.894,3.516-19.307,2.977-3.7,8.681-11.957,13.721-16.111,14.71-21.9,1.459-10.221,1.459-10.221a39.5,39.5,0,0,1-2.317,7.275,44.635,44.635,0,0,1-3.279,6.371c-4.434,7.146-11.828,11.2-13.972,13.6-3.427,3.833-5.551,5.582-8.949,11.853s-3.23,5.412-4.642,13.231.546,9.92-.627,17.944C975.556,615.872,972.606,620.368,972.277,626.428Z" transform="translate(-913.926 -238.367)"/>
      </g>
    </g>
  </g>
  <g id="Group_1093-2" data-name="Group 1093" transform="translate(-693.347 -261.437)">
    <g id="logo_full" transform="translate(788.508 413.293)">
      <g id="Group_962" data-name="Group 962" transform="translate(8.46 168.227)">
        <g id="Group_954" data-name="Group 954" transform="translate(323.772 21.583)">
          <path id="Path_91" data-name="Path 91" class="cls-9" d="M579.2,1372.909a45.507,45.507,0,0,0-14.606,2.176,26.2,26.2,0,0,0-12.475,8.035,13.072,13.072,0,0,0-2.541,6.391,17.606,17.606,0,0,0-.411,4.419,10.8,10.8,0,0,0,4.826,7.828c3.541,2.464,7.868,3.45,12.038,4.263.942.451,1.937.8,2.849,1.306.41.229.786.517,1.181.771a.2.2,0,0,1,.026.026c.087.1.172.213.256.311.077.083.16.165.231.256a6.451,6.451,0,0,1,.411.689c-1.346.057-2.683.083-4.031.083-3.558-.016-7.129,0-10.678.254-1.209-3.056-4.869-4.141-11.864-2.957-7.448,1.264-9.139,5.546-8.555,9,3.12,3.885,2.716,5.642,7.605,6.989a25.863,25.863,0,0,0,10.3,1c1.708-.106,3.392-.353,5.081-.616.73-.107,1.495-.272,2.234-.3,2.846-.124,5.7-.049,8.548-.082,6.007-.066,12.187-.394,17.994-2.03,4.583-1.28,10.791-3.91,11.884-9.183.5-2.415-.478-4.641-1.873-6.57a20.982,20.982,0,0,0-7.393-6.063c-1.107-.591-2.263-1.134-3.414-1.643-1.116-.493-2.241-.945-3.388-1.356a46.452,46.452,0,0,0-5.006-1.494c-.445-.1-.886-.189-1.335-.279-.064-.238-.18-.461-.231-.667,0-.048,0-.048,0-.081,0-.057,0-.14,0-.206,0-.123.016-.361.025-.484.042-.518.059-.837.128-1.364a23.5,23.5,0,0,1,.436-2.431c.067-.279.194-.566.257-.854a9.242,9.242,0,0,1,1.695-1.847,2.31,2.31,0,0,1,.206-.125,3.275,3.275,0,0,1,1.052.593,2.525,2.525,0,0,1,.565.763,2.082,2.082,0,0,1,.077.24,8.956,8.956,0,0,0-.667,1.839c-.217,3.474,5.676,6.669,13.143,7.138s13.7-1.972,13.912-5.439a13.413,13.413,0,0,0,.924-3.417c.017-2.217-1.371-4.361-2.824-5.93-3.131-3.376-7.667-5.306-11.987-6.645A51.176,51.176,0,0,0,579.2,1372.909Z" transform="translate(-535.754 -1372.906)"/>
        </g>
        <g id="Group_955" data-name="Group 955" transform="translate(240.098 21.691)">
          <path id="Path_92" data-name="Path 92" class="cls-9" d="M460.14,1373.056a112.94,112.94,0,0,0-12.481.516c-8.461.757-17.8,2.4-24.675,8.132a17.432,17.432,0,0,0-3.312,3.549c-2.884,4.247-3.653,10-3.433,15.113.184,4.273,1.112,8.8,3.529,12.3a16.59,16.59,0,0,0,2.448,2.745c8.512,7.918,20.135,8.615,30.868,8.657,2.276.008,4.536.246,6.816.205a53.2,53.2,0,0,0,6.457-.591c.023-.017.025-.059.047-.083a46.819,46.819,0,0,0,15.1-3.335,21.433,21.433,0,0,0,7.3-4.723c3.956-4.23,5.967-11,6.313-16.863a18.771,18.771,0,0,0-.7-6.851,20.587,20.587,0,0,0-4.944-7.68,35.3,35.3,0,0,0-2.952-2.852A34.182,34.182,0,0,0,472.5,1374.6,57.748,57.748,0,0,0,460.14,1373.056Zm-1.152,12.961a9.667,9.667,0,0,1,2.784.312,9.906,9.906,0,0,1,3.889,2.719,15.65,15.65,0,0,1,3.072,3.951,9.747,9.747,0,0,1,.744,4.42,25.731,25.731,0,0,1-1.055,6.849,20.178,20.178,0,0,1-1.825,4.419,9.317,9.317,0,0,1-.624.946c-.1.139-.2.28-.312.411a.32.32,0,0,1-.048.057,8.552,8.552,0,0,1-1.608.821,10.08,10.08,0,0,1-2.617.378c-1.2-.756-2.32-.969-3.072-.435-.144.008-.009-.008-.144,0-2.024-.09-4.047-.156-6.072-.148h-1.561l-1.152-.025a3.615,3.615,0,0,1-3.1-1.084,11.931,11.931,0,0,1-.96-.9,4.789,4.789,0,0,1-.816-1.338,15.03,15.03,0,0,1-.984-2.95,24.6,24.6,0,0,1-.576-4.263,26.934,26.934,0,0,1,.192-5,18.962,18.962,0,0,1,.721-3.359,6.942,6.942,0,0,1,1.272-2.6,7.917,7.917,0,0,1,2.16-1.666,11.089,11.089,0,0,1,3.36-.88c1.411-.2,2.83-.311,4.249-.436C456.261,1386.116,457.629,1386.018,458.987,1386.018Z" transform="translate(-416.204 -1373.037)"/>
        </g>
        <g id="Group_956" data-name="Group 956" transform="translate(154.626 22.895)">
          <path id="Path_93" data-name="Path 93" class="cls-9" d="M349.944,1372.06a109.214,109.214,0,0,0-12.264.743c-8.288.92-17.471,3-23.4,9.265-2.941,3.109-4.049,7.57-4.372,11.691a27.008,27.008,0,0,0,1.683,12.333,19.75,19.75,0,0,0,4.6,6.293,25.263,25.263,0,0,0,8.268,6.087,38.42,38.42,0,0,0,15.5,2.583,49.449,49.449,0,0,0,13.269-2.456h.026c.958.229,1.949-.271,2.915-.468.735-.15,1.466-.366,2.186-.572.088-.023.164-.07.251-.1a11.436,11.436,0,0,0,1.91,3.844c2.587,3.282,6.69,4.9,10.755,5.548a26.479,26.479,0,0,0,3.065.316,28.138,28.138,0,0,0,3.694-.047,27,27,0,0,0,3.9-.57,21.767,21.767,0,0,0,3.368-1.086,12.159,12.159,0,0,0,2.085-1.165,5.1,5.1,0,0,0,2.086-2.726c.665-2.3-1.451-4.685-2.865-6.238-.334-.372-.81-.9-1.156-1.244-.174-.176-.352-.342-.528-.516,0-.183-.047-.365-.051-.547-.051-3.035-.115-6.055-.125-9.091-.01-2.743.02-5.5.1-8.243a21.841,21.841,0,0,0-.126-5.873c-.7-2.845-2.689-5.128-4.7-7.18a30.252,30.252,0,0,0-5.805-4.883,37.153,37.153,0,0,0-12.087-4.533A62.167,62.167,0,0,0,349.944,1372.06Zm.7,12.609a4.252,4.252,0,0,1,2.312.913,11.023,11.023,0,0,1,.955.792c.45.436.892.879,1.331,1.316a9.086,9.086,0,0,1,2.463,3.249,6.292,6.292,0,0,1,.125,2.228c-.018.794-.038,1.507-.05,2.3-.032,2.3.048,4.588.075,6.887-.486.039-.973-.008-1.457.047a29.963,29.963,0,0,0-6.911,1.689c-.336.1-.675.165-1.005.269-1.417.452-2.835.943-4.247,1.41-.961.326-1.927.635-2.89.945a8.83,8.83,0,0,1-2.487-3.639,18.879,18.879,0,0,1-.8-3.621,25.52,25.52,0,0,1-.227-3.069,17.758,17.758,0,0,1,1.559-8.393,5.282,5.282,0,0,1,1.684-1.863,5.076,5.076,0,0,1,.8-.443c.083-.039.189-.1.276-.126-.043.016.087-.04.126-.024a32.221,32.221,0,0,1,5.729-.745A19.01,19.01,0,0,1,350.648,1384.669Z" transform="translate(-309.81 -1372.06)"/>
        </g>
        <g id="Group_961" data-name="Group 961" transform="translate(0 0)">
          <g id="Group_959" data-name="Group 959" transform="translate(70.58)">
            <g id="Group_957" data-name="Group 957">
              <path id="Path_94" data-name="Path 94" class="cls-9" d="M223.7,1352.56c-7.525-.089-13.668,2.866-13.708,6.613-.315,9.444-.093,18.887-.025,28.33.038,5.264-.311,10.555.025,15.809a32.908,32.908,0,0,0,.693,5.626c.286,1.173.962,2.125,1.309,3.253a19.217,19.217,0,0,1,.719,4.541c.043,3.968,6.533,7.1,14.477,7s14.34-3.395,14.3-7.354a25.922,25.922,0,0,0-1.155-6.366,16.973,16.973,0,0,0-.924-2.152,2.706,2.706,0,0,1-.257-.582c-.158-.953-.307-1.9-.411-2.857-.563-5.228-.439-10.519-.692-15.766-.2-4.081-.493-8.156-.668-12.238q-.362-8.452-.128-16.912C237.3,1355.751,231.228,1352.657,223.7,1352.56Z" transform="translate(-209.831 -1352.558)"/>
            </g>
            <g id="Group_958" data-name="Group 958" transform="translate(8.453 27.117)">
              <path id="Path_95" data-name="Path 95" class="cls-9" d="M245.742,1384.609a67.631,67.631,0,0,0-9.882,1.245c-1.792.361-3.536.867-5.314,1.3a48.184,48.184,0,0,0-10.19,3.293c-1.168,2.7,2.169,7.137,7.444,9.9s10.485,2.807,11.653.118a.819.819,0,0,0,.128-.063c-.062.035.137-.037.205-.055.362-.08.716-.17,1.079-.252,1.038-.234,2.073-.5,3.106-.758a20.4,20.4,0,0,1,5.211-.766,42.188,42.188,0,0,1,5.211.6c.338.045.679.108,1.027.144.029.064.053.135.077.19.222.568.435,1.128.642,1.7a28.474,28.474,0,0,1,1.488,5.332,68.652,68.652,0,0,1,.463,9.925c.027,1.9.129,3.8.283,5.693.059,4.051,6.536,7.218,14.477,7.074s14.332-3.528,14.273-7.578c-.456-5.071-.085-10.214-.8-15.257a33.912,33.912,0,0,0-2.233-7.841,22.761,22.761,0,0,0-2.131-4.457,16.661,16.661,0,0,0-7.238-5.629,40.952,40.952,0,0,0-12.193-2.943c-2.261-.234-4.538-.541-6.8-.73A75.589,75.589,0,0,0,245.742,1384.609Z" transform="translate(-220.122 -1384.518)"/>
            </g>
          </g>
          <g id="Group_960" data-name="Group 960" transform="translate(0 20.902)">
            <path id="Path_96" data-name="Path 96" class="cls-9" d="M155.55,1375.045a48.412,48.412,0,0,0-17.018,4.556,46.173,46.173,0,0,0-16.172,12.079,34.73,34.73,0,0,0-6.9,12.113,11.061,11.061,0,0,0-.205,6.678c.9,2.554,3.08,4.488,5.134,6.013a29.7,29.7,0,0,0,5.775,3.426,42.97,42.97,0,0,0,10.011,2.7c2.717.465,5.39,1.026,8.138,1.293a88.674,88.674,0,0,0,9.832.267c2.651-.042,5.287-.025,7.932-.267,2.7-.25,5.371-.758,8.06-1.1,2.072-.267,4.146-.414,6.212-.758,1.645-.268,3.283-.639,4.9-1.053,1.516-1.847-.324-6.117-4.107-9.542s-8.084-4.7-9.6-2.856a43.721,43.721,0,0,1-5.134.673c-1.279.173-2.551.363-3.824.569l-1.387.206c-.166.035-.418.061-.59.087-.049.009-.125.017-.154.026h-1.1l-1.283.027c-.7.008-1.435.044-2.131.052a15.625,15.625,0,0,1-2.695-.026c-.806-.147-1.606-.32-2.413-.457-.758-.13-1.5-.258-2.259-.38-.127-.078-.271-.138-.385-.216a8.52,8.52,0,0,1-.847-.612,3.354,3.354,0,0,1-.333-.3c-.008-.008-.017-.008-.025-.026a4.37,4.37,0,0,1,.077-1.752,16.465,16.465,0,0,1,1.258-3.666,28.14,28.14,0,0,1,8.676-10.786c.559-.414,1.209-.663,1.8-1.026,2.172,2.243,7.085,3.563,12.706,3.157,7.432-.542,13.281-3.926,13.039-7.549-2.675-8.2-11.59-10.9-19.072-11.518A40.859,40.859,0,0,0,155.55,1375.045Z" transform="translate(-114.817 -1374.951)"/>
          </g>
        </g>
      </g>
      <g id="Group_967" data-name="Group 967" transform="translate(130.92 104.173)">
        <g id="Group_965" data-name="Group 965" transform="translate(88.061)">
          <g id="Group_963" data-name="Group 963">
            <path id="Path_97" data-name="Path 97" class="cls-9" d="M429.916,1269.791a92.181,92.181,0,0,0-10.6,1.388c-8.259,1.438-16.52,3.8-23.23,9.035-4.7,3.672-7.989,8.486-10.833,13.653a43.043,43.043,0,0,0-2.31,4.624c-2.094,5.216-2.31,10.991-2.515,16.535-.233,6.26.2,12.51,2.849,18.269.348,3.614,6.915,5.94,14.683,5.191s13.8-4.271,13.451-7.885c-2.246-4.764-2.49-10.079-2.336-15.271.124-4.163.15-8.411,1.181-12.476a27.406,27.406,0,0,1,2.362-5.75,46.623,46.623,0,0,1,3.645-6.211,17.47,17.47,0,0,1,11.013-7.467c1.635-.336,3.277-.623,4.929-.878.286-.041.5-.074.719-.1,1.677.854,4.915-.476,7.7-3.392,3.047-3.179,4.3-6.9,2.823-8.312A52.241,52.241,0,0,0,429.916,1269.791Z" transform="translate(-380.371 -1269.703)"/>
          </g>
          <g id="Group_964" data-name="Group 964" transform="translate(25.138 25.525)">
            <path id="Path_98" data-name="Path 98" class="cls-9" d="M423.907,1300.8a77.72,77.72,0,0,0-11.885.747c-1.577.863-1.348,4.33.513,7.722s4.635,5.437,6.212,4.575c.661-.075,1.429-.165,2.1-.206a3.651,3.651,0,0,1,.513-.024c.022,0,.073.04.052.048-.177.033-.361.033-.54.05-.108.009-.347-.082-.333.025s.242.082.359.106c.392.074.787.139,1.181.2.53.084,1.059.19,1.592.256a65.7,65.7,0,0,0,6.6.435c1.714.075,3.228-2.85,3.388-6.547s-1.109-6.727-2.824-6.8c-.108.008-.267-.1-.308,0s.207.016.308.024c.064.009-.141.009-.205,0-.213-.016-.429-.024-.641-.049-.356-.033-.7-.09-1.052-.132C427.265,1301.059,425.589,1300.861,423.907,1300.8Z" transform="translate(-410.974 -1300.777)"/>
          </g>
        </g>
        <g id="Group_966" data-name="Group 966" transform="translate(0 8.238)">
          <path id="Path_99" data-name="Path 99" class="cls-9" d="M324.821,1279.747a99.6,99.6,0,0,0-22.332,2.513c-8.291,1.726-17.3,4.363-23.18,10.836-3.446,3.794-4.464,8.887-4.312,13.889.165,5.437,1.64,11.36,5.237,15.607a18.141,18.141,0,0,0,3.671,3.228c7.693,5.265,17.38,6.671,26.516,6.342,3.219-.114,6.428-.485,9.626-.846,2.4-.271,4.814-.3,7.213-.616a53.973,53.973,0,0,0,6.263-1.281c.005-.009,0-.016,0-.025a53.143,53.143,0,0,0,11.4-3.261,26.629,26.629,0,0,0,8.984-5.856c4.01-4.378,5.441-11.5,5.288-17.25a18.442,18.442,0,0,0-1.592-7.49c-1.9-3.96-5.707-7.073-9.317-9.448a39.827,39.827,0,0,0-15.967-5.7A58.852,58.852,0,0,0,324.821,1279.747Zm-2.413,13.012a5.192,5.192,0,0,1,1.951,0,11.248,11.248,0,0,1,3.157,1.955,11.479,11.479,0,0,1,3,3.031,10.065,10.065,0,0,1,1.18,4.411,24.756,24.756,0,0,1-.308,5.955,15.555,15.555,0,0,1-2.773,7.262,5.684,5.684,0,0,1-1.027.723,11.04,11.04,0,0,1-1.848.92,13.118,13.118,0,0,1-1.694.411c-2.107-.707-3.925-.724-4.775.313-.82.147-.259.056-.821.155l-.744.05-.872.049c-.359.025-.72.05-1.078.082-2,.157-3.986.436-5.981.642-.477.048-.958.065-1.437.1a10.841,10.841,0,0,1-1.207-.716c-.026-.017-.076-.073-.052-.049-.034-.032-.048-.074-.077-.107-.047-.05-.084-.1-.129-.157a6.443,6.443,0,0,1-.539-.69,11.184,11.184,0,0,1-.95-1.774,24.266,24.266,0,0,1-1.771-7.311,23.037,23.037,0,0,1,.026-4.338,11.109,11.109,0,0,1,1.284-4.623,7.641,7.641,0,0,1,1.771-1.873c2.917-2.391,7.053-2.949,10.627-3.648A50.987,50.987,0,0,1,322.408,1292.758Z" transform="translate(-274.982 -1279.731)"/>
        </g>
      </g>
      <g id="Group_976" data-name="Group 976" transform="translate(0)">
        <g id="Group_968" data-name="Group 968" transform="translate(328.692 6.124)">
          <path id="Path_100" data-name="Path 100" class="cls-9" d="M585.864,1144.329a20.851,20.851,0,0,0-2.567.411,34.444,34.444,0,0,0-6.341,2.054,8.027,8.027,0,0,0-2.028,1.521,5.179,5.179,0,0,0-.744.918,6.983,6.983,0,0,0-.9,2.21c-.369,1.348-.611,2.661-.872,4.033-.573,3.006-1.266,5.98-1.746,9.011-.743,4.682-1.242,9.414-1.642,14.137-1.269-.066-2.533-.213-3.8-.279-10.818-.533-22.688-.156-32.42,5.134-3.834,2.079-7.208,4.937-8.8,9.085a49.408,49.408,0,0,0-1.591,5.906,20.986,20.986,0,0,0-.848,5.184,16.194,16.194,0,0,0,1.848,7.006c5.368,10.72,18.126,13.71,29.135,14.071,1.867.059,3.729.042,5.6,0,2.071-.048,4.14-.091,6.212-.181,2.724-.123,5.437-.4,8.137-.772.1.262.15.541.258.8a12.837,12.837,0,0,0,2.746,4.36,9.19,9.19,0,0,0,1,.9,12.663,12.663,0,0,0,1.924,1.183,26.954,26.954,0,0,0,3.517,1.355,27.807,27.807,0,0,0,3.184.7c.918.156,1.843.223,2.772.3a38.448,38.448,0,0,0,5.416.049c.185-.009.356-.032.539-.049.435.04.876.09,1.31.13.615.051,1.232.107,1.848.149,2.026.139,4.054.206,6.083.238,1.715.066,3.212-2.858,3.363-6.547s-1.109-6.76-2.823-6.833c-1.122-.01-2.226-.14-3.338-.229-.051-.157-.1-.33-.154-.486a60.7,60.7,0,0,1-1.873-8.058c-.26-1.528-.437-3.064-.617-4.6a53.1,53.1,0,0,0,4.055-9.5c2.148-7.089,2.61-14.432,2.747-21.792a134.915,134.915,0,0,0-.591-15.861c-.17-1.708-.359-3.417-.642-5.11-.129-.78-.279-1.568-.436-2.341,0-.048,0-.066,0-.1.007-.074.02-.155.025-.229.01-.14.022-.28.026-.41a4.1,4.1,0,0,0-.205-1.5,6.706,6.706,0,0,0-3.029-3.285,2.241,2.241,0,0,0-.589-.354c-3.509-.771-6.959-1.872-10.525-2.307A12.6,12.6,0,0,0,585.864,1144.329Zm-25,46.541c.447.008,1.322.059,1.746.075,1.055.057,2.1.124,3.157.182.881.048,1.764.123,2.645.18a121.921,121.921,0,0,0,.488,15.533c-.412.724-.765,1.487-1.232,2.177a6.475,6.475,0,0,1-1.977,2.11,2.2,2.2,0,0,1-.308.149c-.008.008-.015,0-.025,0a19.488,19.488,0,0,1-3.9.467c-2.585.116-5.212.287-7.8.148a4.842,4.842,0,0,1-.821-.559,10.924,10.924,0,0,1-2.259-2.669,10.365,10.365,0,0,1-1.591-4.963,24.544,24.544,0,0,1,1.129-5.775,13.247,13.247,0,0,1,1.567-4.459C553.655,1190.518,557.79,1190.788,560.861,1190.87Zm29.212,29.259c.291,0,.582-.008.873,0-.436.025-.87,0-1.309.033C589.782,1220.154,589.928,1220.137,590.073,1220.129Z" transform="translate(-521.562 -1144.277)"/>
        </g>
        <g id="Group_969" data-name="Group 969" transform="translate(288.703)">
          <path id="Path_101" data-name="Path 101" class="cls-9" d="M489.168,1136.895c-7.451-.526-13.669,1.848-13.913,5.314a120.425,120.425,0,0,0-4.055,15.344c-1.891,11.131-1.584,22.515-1.643,33.76-.034,6.472-.363,12.954-.308,19.427.024,2.8.182,5.578.36,8.369.039,3.688,6.507,6.629,14.451,6.546s14.337-3.161,14.3-6.858c-.194-2.677-.366-5.348-.411-8.033-.11-6.465.162-12.913.025-19.378-.223-10.44-1.017-20.946.333-31.346a97.958,97.958,0,0,1,3.927-15.936C502.477,1140.64,496.618,1137.412,489.168,1136.895Z" transform="translate(-469.242 -1136.822)"/>
        </g>
        <g id="Group_970" data-name="Group 970" transform="translate(218.645 29.811)">
          <path id="Path_102" data-name="Path 102" class="cls-9" d="M390.389,1171c-7.513-.231-13.7,2.321-13.81,5.711a49.611,49.611,0,0,0-.155,12.857c.531,4.179,1.714,8.214,2.644,12.315.546,2.409.846,4.857,1.308,7.274.3,1.555.675,3.094,1.027,4.642.643,2.816.887,5.679,1.362,8.519-.007.056-.021.127-.026.176a5.389,5.389,0,0,0-.026.573,3.83,3.83,0,0,0,.333,1.547,7.161,7.161,0,0,0,3.466,2.99,16.411,16.411,0,0,0,1.617.647,27.671,27.671,0,0,0,10.242,1.349c.778-.031,1.562-.144,2.336-.224.317-.04.609-.1.925-.151,0,.008-.005.024,0,.024.011.015.091-.024.128-.024.124-.008.3-.048.436-.072.42-.08.844-.176,1.258-.279a14.468,14.468,0,0,0,5.186-2.194,6.32,6.32,0,0,0,1.283-1.22c.884-1.133.844-2.321.873-3.716.024-1.173,0-2.362.051-3.535.085-1.874.586-3.708.822-5.559.245-1.938.241-3.9.668-5.806.814-3.645,3.589-6.429,6.084-9.1a44.127,44.127,0,0,1,7.546-6.755,13.216,13.216,0,0,1,3.594-1.866,15.9,15.9,0,0,1,3.26-.424c1.289-.1,2.586-.175,3.876-.247,1.7-.486,2.2-3.748,1.13-7.306s-3.3-6.038-5.006-5.559c-6.946.406-13.9.932-20.535,3.142a40.594,40.594,0,0,0-8.881,4.331,49.178,49.178,0,0,1,.384-5.5C403.9,1174.162,397.9,1171.228,390.389,1171Z" transform="translate(-376.077 -1170.982)"/>
        </g>
        <g id="Group_975" data-name="Group 975" transform="translate(0 34.117)">
          <g id="Group_971" data-name="Group 971" transform="translate(123.997 0.714)">
            <path id="Path_103" data-name="Path 103" class="cls-9" d="M304.7,1179.246a127.919,127.919,0,0,0-13.631.542c-9.256.772-19.488,2.423-27,8.288a18.449,18.449,0,0,0-3.62,3.646c-3.176,4.379-4.042,10.285-3.8,15.558.2,4.387,1.241,9.053,3.9,12.651a17.747,17.747,0,0,0,2.7,2.825c6.548,5.693,15.276,7.9,23.744,8.576,3.317.262,6.66.246,9.985.255,2.513.008,5,.271,7.521.23,1.389-.025,2.759-.223,4.133-.362,7.245-.3,14.587-1.38,21.2-4.46a23.559,23.559,0,0,0,5.494-3.393c4.217-3.655,6.4-9.471,7.316-14.835a21.017,21.017,0,0,0-.36-10.292c-1.168-3.393-3.6-6.079-6.134-8.527a32.8,32.8,0,0,0-3.286-2.849,39.234,39.234,0,0,0-14.606-6.318A67.322,67.322,0,0,0,304.7,1179.246Zm-1.206,12.937a11.894,11.894,0,0,1,3.362.385,11.51,11.51,0,0,1,4.492,2.925,13.869,13.869,0,0,1,3.671,4.625,12.162,12.162,0,0,1,.539,5.52,23.665,23.665,0,0,1-3.106,10.267,10.6,10.6,0,0,1-.9,1.282c-.076.09-.176.172-.257.255a1.675,1.675,0,0,0-.129.131,10.551,10.551,0,0,1-1.848.847,13.4,13.4,0,0,1-3.131.435c-1.285-.755-2.481-.978-3.286-.435-.205.007-.017-.016-.205,0-2.271-.091-4.555-.181-6.829-.181-.794,0-1.592.008-2.387,0-2.111-.032-2.8.058-4.492-1.257a13.383,13.383,0,0,1-1.078-.953,4.348,4.348,0,0,1-.771-1.1,14.31,14.31,0,0,1-1.258-3.417,23.7,23.7,0,0,1-.641-4.411,26.32,26.32,0,0,1,.205-5.216,18.862,18.862,0,0,1,.822-3.515,7.222,7.222,0,0,1,1.437-2.745,9.168,9.168,0,0,1,2.515-1.8,13.579,13.579,0,0,1,3.9-.977c1.582-.214,3.184-.313,4.775-.436C300.429,1192.3,301.959,1192.183,303.494,1192.183Z" transform="translate(-256.609 -1179.224)"/>
          </g>
          <g id="Group_974" data-name="Group 974">
            <g id="Group_972" data-name="Group 972" transform="translate(0 3.723)">
              <path id="Path_104" data-name="Path 104" class="cls-9" d="M119,1182.906c-7.5.255-13.469,3.294-13.348,6.776.811,4.543,2.337,8.9,3.44,13.372,1.412,5.718,2.322,11.583,4.7,17.02.472,1.077.973,2.136,1.464,3.2,1.107,2.423,2.261,4.944,4.518,6.522a10.711,10.711,0,0,0,1.232.8,14.7,14.7,0,0,0,2.413,1.076,40.15,40.15,0,0,0,5.108,1.158,24.989,24.989,0,0,0,3.747.279,40.545,40.545,0,0,0,4.133-.206,27.933,27.933,0,0,0,7.213-1.715c4.795-1.824,8.665-5.29,12.269-8.831,4.667-4.592,9.107-9.537,15.017-12.551,1.154-2.76-2.724-7.016-8.651-9.5s-11.654-2.258-12.808.492a52.979,52.979,0,0,0-7.855,4.954c-1.231.944-2.367,1.987-3.516,3.03-.729-2.842-1.417-5.7-2.207-8.527-1.073-3.828-2.341-7.581-3.055-11.5C132.693,1185.272,126.5,1182.643,119,1182.906Z" transform="translate(-105.654 -1182.888)"/>
            </g>
            <g id="Group_973" data-name="Group 973" transform="translate(35.589)">
              <path id="Path_105" data-name="Path 105" class="cls-9" d="M216.481,1178.4c-4.742-.3-8.475.944-9.113,3.359-2.545,2.112-5.292,4.165-7.366,6.777a34,34,0,0,0-2.439,3.647,57.7,57.7,0,0,0-2.9,5.282c-1.548,3.3-2.817,6.751-4.21,10.119a63.181,63.181,0,0,1-3.106,6.49c-.523-.888-1.121-1.808-1.541-2.588a106.635,106.635,0,0,1-4.594-10.5c-1.764-4.387-3.548-8.732-5.7-12.938-.36-3.408-6.589-5.528-13.912-4.748s-12.964,4.165-12.6,7.565c3.245,6.4,5.562,13.176,8.419,19.739a62.031,62.031,0,0,0,3.8,7.45,26.769,26.769,0,0,0,3.158,4.362,28.433,28.433,0,0,0,10.884,7.031,37.669,37.669,0,0,0,9.96,2.234,40.569,40.569,0,0,0,10.781-.459,26.312,26.312,0,0,0,12.783-5.931,30.488,30.488,0,0,0,6.058-7.648c4.207-7.261,6.28-15.573,10.884-22.612.38-.584.781-1.16,1.181-1.726a13.411,13.411,0,0,1,2.259-2.152c1.1-.944,2.22-1.857,3.337-2.775.851-3.221-4.074-7.3-11.012-9.135A25.942,25.942,0,0,0,216.481,1178.4Z" transform="translate(-148.98 -1178.356)"/>
            </g>
          </g>
        </g>
      </g>
    </g>
  </g>
</svg>
