<svg xmlns="http://www.w3.org/2000/svg" width="700" height="700" viewBox="0 0 700 700">
  <g id="safari-pinned-tab" transform="translate(-532 -619)">
    <path id="Path_172" data-name="Path 172" d="M0,0H700V700H0Z" transform="translate(532 619)" fill="#bfbfbf"/>
    <g id="Layer-2" transform="translate(621.048 845.955)">
      <g id="Group_923" data-name="Group 923" transform="translate(0 0)">
        <g id="Group_922" data-name="Group 922">
          <g id="Group_920" data-name="Group 920" transform="translate(0 16.932)">
            <path id="Path_71" data-name="Path 71" d="M152.011,164.5c-34.663,1.206-62.318,15.272-61.758,31.374,1.428,8.022,3.2,15.937,5.325,23.8,3.323,12.327,7.226,24.456,10.284,36.855,5.9,23.905,9.749,48.438,18.9,71.415,2.78,6.981,6.079,13.785,9.188,20.621,4.424,9.726,8.86,19.772,17.123,26.937a43.533,43.533,0,0,0,3.5,2.82,48.924,48.924,0,0,0,5.69,3.6,79.334,79.334,0,0,0,11.119,5.012,156.492,156.492,0,0,0,18.063,4.594,116.1,116.1,0,0,0,12.841,1.565,148.024,148.024,0,0,0,20.151.262,135.722,135.722,0,0,0,42.075-8.667c22.231-8.591,40.034-24.391,56.8-40.876,15.646-15.382,30.669-31.907,48.5-44.842a142.443,142.443,0,0,1,18.845-11.433c5.336-12.726-12.542-32.365-39.936-43.851s-53.968-10.481-59.3,2.245a239.523,239.523,0,0,0-35.864,22.6c-5.05,3.884-9.709,8.191-14.46,12.425-2.853-11.346-5.489-22.748-8.561-34.039-5.03-18.483-11.329-36.556-14.774-55.44C215.192,175.389,186.674,163.3,152.011,164.5Z" transform="translate(-90.245 -164.419)" fill="#2e2e2e"/>
          </g>
          <g id="Group_921" data-name="Group 921" transform="translate(161.814)">
            <path id="Path_72" data-name="Path 72" d="M483.81,154.384c-16.745.8-29.089,6.333-31.531,15.661-7.649,6.407-15.429,12.693-22.709,19.523a98.087,98.087,0,0,0-12.425,13.469A240.323,240.323,0,0,0,402.163,226.9c-3.346,5.957-6.537,11.938-9.345,18.167-8.879,19.7-15.766,40.233-25.006,59.773-1.692,3.58-3.6,7.088-5.481,10.6-.879-1.51-1.864-2.983-2.715-4.49-7.41-13.144-13.174-27.114-18.95-41.031-9.945-23.964-19.086-48.2-31.06-71.258-1.694-15.709-30.447-25.465-64.263-21.822S185.5,196.151,187.187,211.86c14.911,28.92,25.155,59.851,38.11,89.633,1.425,3.276,2.763,6.58,4.28,9.814,3.59,7.654,7.684,15.083,12.008,22.343a125.926,125.926,0,0,0,15.452,21.508c11,11.876,24.7,21.132,39.361,27.878a165.992,165.992,0,0,0,42.65,12.841,186.226,186.226,0,0,0,56.38.626c22.893-3.3,45.4-11.366,63.273-26.363,15.227-12.779,26.241-29.625,35.288-47.14,6.958-13.466,12.841-27.453,18.638-41.449,4.043-9.764,7.907-19.667,12.632-29.131,1.985-3.972,4.227-7.783,6.422-11.642,1.929-3.391,3.919-6.809,6.056-10.075,1.689-2.581,3.54-5.105,5.326-7.621a29.292,29.292,0,0,1,3.548-3.707c1.8-1.761,3.642-3.455,5.534-5.115,5.372-4.714,11-9.169,16.5-13.73,3.907-14.926-18.981-33.821-51.108-42.232A113.87,113.87,0,0,0,483.81,154.384Z" transform="translate(-187.109 -154.284)" fill="#2e2e2e"/>
          </g>
        </g>
      </g>
    </g>
  </g>
</svg>
